{
    "asset" : {
        "generator" : "Khronos glTF Blender I/O v0.9.36",
        "version" : "2.0"
    },
    "scene" : 0,
    "scenes" : [
        {
            "name" : "Scene",
            "nodes" : [
                0,
                1,
                2
            ]
        }
    ],
    "nodes" : [
        {
            "name" : "Light",
            "rotation" : [
                0.16907575726509094,
                0.27217137813568115,
                0.7558803558349609,
                0.570947527885437
            ],
            "translation" : [
                4.076245307922363,
                1.0054539442062378,
                5.903861999511719
            ]
        },
        {
            "camera" : 0,
            "name" : "Camera",
            "rotation" : [
                0.483536034822464,
                0.20870360732078552,
                0.33687159419059753,
                0.7804827094078064
            ],
            "translation" : [
                7.358891487121582,
                -6.925790786743164,
                4.958309173583984
            ]
        },
        {
            "mesh" : 0,
            "name" : "Terminale Augmented Reality Model"
        }
    ],
    "cameras" : [
        {
            "name" : "Camera",
            "perspective" : {
                "yfov" : 0.39959648408210363,
                "zfar" : 100,
                "znear" : 0.10000000149011612
            },
            "type" : "perspective"
        }
    ],
    "materials" : [
        {
            "doubleSided" : true,
            "name" : "Material.002",
            "pbrMetallicRoughness" : {
                "baseColorFactor" : [
                    1,
                    1,
                    1,
                    1
                ],
                "metallicFactor" : 0,
                "roughnessFactor" : 0.4040403962135315
            }
        }
    ],
    "meshes" : [
        {
            "name" : "Terminale Augmented Reality Model",
            "primitives" : [
                {
                    "attributes" : {
                        "POSITION" : 0,
                        "NORMAL" : 1
                    },
                    "indices" : 2,
                    "material" : 0
                },
                {
                    "attributes" : {
                        "POSITION" : 3,
                        "NORMAL" : 4
                    },
                    "indices" : 5,
                    "material" : 0
                },
                {
                    "attributes" : {
                        "POSITION" : 6,
                        "NORMAL" : 7
                    },
                    "indices" : 8,
                    "material" : 0
                },
                {
                    "attributes" : {
                        "POSITION" : 9,
                        "NORMAL" : 10
                    },
                    "indices" : 11,
                    "material" : 0
                },
                {
                    "attributes" : {
                        "POSITION" : 12,
                        "NORMAL" : 13
                    },
                    "indices" : 14,
                    "material" : 0
                }
            ]
        }
    ],
    "accessors" : [
        {
            "bufferView" : 0,
            "componentType" : 5126,
            "count" : 65534,
            "max" : [
                0.5,
                0.5,
                0.23710979521274567
            ],
            "min" : [
                -0.5,
                -0.5,
                0
            ],
            "type" : "VEC3"
        },
        {
            "bufferView" : 1,
            "componentType" : 5126,
            "count" : 65534,
            "type" : "VEC3"
        },
        {
            "bufferView" : 2,
            "componentType" : 5123,
            "count" : 68004,
            "type" : "SCALAR"
        },
        {
            "bufferView" : 3,
            "componentType" : 5126,
            "count" : 65531,
            "max" : [
                0.12143842875957489,
                0.27994728088378906,
                0.3685014843940735
            ],
            "min" : [
                -0.28552359342575073,
                -0.20659752190113068,
                -0.003258290234953165
            ],
            "type" : "VEC3"
        },
        {
            "bufferView" : 4,
            "componentType" : 5126,
            "count" : 65531,
            "type" : "VEC3"
        },
        {
            "bufferView" : 5,
            "componentType" : 5123,
            "count" : 78840,
            "type" : "SCALAR"
        },
        {
            "bufferView" : 6,
            "componentType" : 5126,
            "count" : 65534,
            "max" : [
                0.06149563565850258,
                0.3339276611804962,
                0.3709600865840912
            ],
            "min" : [
                -0.13942983746528625,
                0.1713119000196457,
                0.03940323367714882
            ],
            "type" : "VEC3"
        },
        {
            "bufferView" : 7,
            "componentType" : 5126,
            "count" : 65534,
            "type" : "VEC3"
        },
        {
            "bufferView" : 8,
            "componentType" : 5123,
            "count" : 66180,
            "type" : "SCALAR"
        },
        {
            "bufferView" : 9,
            "componentType" : 5126,
            "count" : 35607,
            "max" : [
                0.0727207213640213,
                0.2861100435256958,
                0.6651525497436523
            ],
            "min" : [
                -0.1009216457605362,
                -0.024115588515996933,
                -0.004741351120173931
            ],
            "type" : "VEC3"
        },
        {
            "bufferView" : 10,
            "componentType" : 5126,
            "count" : 35607,
            "type" : "VEC3"
        },
        {
            "bufferView" : 11,
            "componentType" : 5123,
            "count" : 36009,
            "type" : "SCALAR"
        },
        {
            "bufferView" : 12,
            "componentType" : 5126,
            "count" : 8,
            "max" : [
                0.010312285274267197,
                0.252086341381073,
                0.36413922905921936
            ],
            "min" : [
                -0.1125156432390213,
                -0.08859128504991531,
                0.02669036202132702
            ],
            "type" : "VEC3"
        },
        {
            "bufferView" : 13,
            "componentType" : 5126,
            "count" : 8,
            "type" : "VEC3"
        },
        {
            "bufferView" : 14,
            "componentType" : 5123,
            "count" : 12,
            "type" : "SCALAR"
        }
    ],
    "bufferViews" : [
        {
            "buffer" : 0,
            "byteLength" : 786408,
            "byteOffset" : 0
        },
        {
            "buffer" : 0,
            "byteLength" : 786408,
            "byteOffset" : 786408
        },
        {
            "buffer" : 0,
            "byteLength" : 136008,
            "byteOffset" : 1572816
        },
        {
            "buffer" : 0,
            "byteLength" : 786372,
            "byteOffset" : 1708824
        },
        {
            "buffer" : 0,
            "byteLength" : 786372,
            "byteOffset" : 2495196
        },
        {
            "buffer" : 0,
            "byteLength" : 157680,
            "byteOffset" : 3281568
        },
        {
            "buffer" : 0,
            "byteLength" : 786408,
            "byteOffset" : 3439248
        },
        {
            "buffer" : 0,
            "byteLength" : 786408,
            "byteOffset" : 4225656
        },
        {
            "buffer" : 0,
            "byteLength" : 132360,
            "byteOffset" : 5012064
        },
        {
            "buffer" : 0,
            "byteLength" : 427284,
            "byteOffset" : 5144424
        },
        {
            "buffer" : 0,
            "byteLength" : 427284,
            "byteOffset" : 5571708
        },
        {
            "buffer" : 0,
            "byteLength" : 72018,
            "byteOffset" : 5998992
        },
        {
            "buffer" : 0,
            "byteLength" : 96,
            "byteOffset" : 6071012
        },
        {
            "buffer" : 0,
            "byteLength" : 96,
            "byteOffset" : 6071108
        },
        {
            "buffer" : 0,
            "byteLength" : 24,
            "byteOffset" : 6071204
        }
    ],
    "buffers" : [
        {
            "byteLength" : 6071228,
            "uri" : "endcity.bin"
        }
    ]
}
